<svg xmlns="http://www.w3.org/2000/svg" viewbox="0 0 437 54">
  <title>Something Familiar</title>
  <path fill="currentColor" d="M17.1 27.1c-1.5-.7-3.1-1.2-4.7-1.6-1.5-.4-3-1-4.5-1.8-.9-.5-1.5-1.5-1.4-2.5 0-1 .4-2 1.2-2.6.9-.7 1.9-1 3-1 1.2-.1 2.3.3 3.2 1.1.9.8 1.4 1.9 1.5 3.1h5.5c-.1-2.5-1.3-4.9-3.2-6.5-2-1.6-4.5-2.4-7.1-2.3-1.8 0-3.6.4-5.2 1.2-1.4.7-2.5 1.7-3.3 3-.7 1.2-1.1 2.6-1.1 4-.1 1.6.4 3.1 1.3 4.4.8 1.1 1.9 2 3.1 2.5 1.5.7 3.1 1.3 4.6 1.7 1.6.4 3.1 1 4.5 1.8.9.5 1.5 1.5 1.4 2.6 0 .9-.4 1.8-1.2 2.3-1 .7-2.2 1-3.4 1-1.3 0-2.6-.4-3.7-1.3-1-.8-1.7-2-1.8-3.4H.3c.1 2.6 1.2 5.1 3.3 6.8 2.2 1.7 4.9 2.6 7.7 2.5 1.8 0 3.5-.3 5.2-1 1.4-.6 2.7-1.6 3.6-2.8.9-1.2 1.3-2.6 1.3-4.1.1-1.6-.4-3.2-1.3-4.5-.7-1.2-1.8-2.1-3-2.6ZM45.3 14.8c-4.6-2.6-10.2-2.6-14.8 0-2.2 1.3-4 3.1-5.2 5.3-2.5 4.6-2.5 10.2 0 14.8 1.2 2.2 3 4 5.2 5.3 4.6 2.6 10.2 2.6 14.8 0 2.2-1.3 4-3.1 5.2-5.3 2.5-4.6 2.5-10.2 0-14.8-1.2-2.2-3-4-5.2-5.3Zm.4 17.6c-.7 1.4-1.8 2.6-3.2 3.4-2.9 1.6-6.4 1.6-9.2 0-1.4-.8-2.5-2-3.2-3.4-1.6-3.1-1.6-6.8 0-9.9.7-1.4 1.8-2.6 3.2-3.4 4.2-2.5 9.6-1.2 12.1 2.9.1.2.2.3.3.5 1.6 3.2 1.6 6.8 0 9.9ZM91.7 14.4c-1.9-1-4-1.6-6.1-1.5-1.6 0-3.1.3-4.5.9-1.2.5-2.2 1.2-3.1 2.1-.6.6-1.1 1.3-1.4 2h-.1c-.3-.8-.8-1.5-1.4-2-.9-.9-2-1.6-3.1-2.1-1.4-.6-3-1-4.5-.9-2.6-.1-5 1.3-6.3 3.6l-.3-3H56v28h5.5V25.3c-.1-1.9.4-3.8 1.6-5.4 2.5-2.5 6.6-2.6 9.2 0l.1.1c1.1 1.6 1.7 3.5 1.6 5.5v16.1h5.5V25.5c-.1-2 .4-3.9 1.6-5.5 2.5-2.6 6.6-2.6 9.1-.1l.1.1c1.1 1.6 1.7 3.5 1.6 5.4v16.2h5.5V25c0-2.2-.4-4.3-1.4-6.2-1.2-1.9-2.6-3.4-4.3-4.4ZM121.6 14.8c-2-1.3-4.4-1.9-6.7-1.9-2.6 0-5.1.6-7.3 1.9-2.1 1.2-3.9 3-5 5.2-1.2 2.3-1.8 4.9-1.8 7.6 0 2.6.6 5.2 1.8 7.6 1.2 2.2 2.9 4 5.1 5.2 2.2 1.3 4.7 1.9 7.2 1.9 2.9.1 5.7-.8 8-2.5 2.3-1.6 3.9-3.9 4.7-6.5H122c-1.3 2.7-4.1 4.3-7.1 4-2 0-4-.7-5.5-2-1.6-1.4-2.6-3.3-2.9-5.4h21.7c.1-.7.1-1.4.1-2.2 0-2.6-.6-5.1-1.8-7.4-1.1-2.4-2.8-4.2-4.9-5.5Zm-15.1 10.3c.3-2 1.4-3.9 2.9-5.2 1.5-1.3 3.5-2 5.5-1.9 2 0 3.9.7 5.3 2.1 1.4 1.3 2.3 3.1 2.5 5.1l-16.2-.1ZM138.9 4.1h-5.6v9.4h-5v4.7h5l.1 14.3c-.1 2.6.9 5.1 2.7 6.9 1.9 1.7 4.4 2.6 6.9 2.5 1.2 0 2.4-.1 3.6-.4v-4.6l-2.1.1c-1.5.1-3-.3-4.3-1.1-1-1.1-1.5-2.5-1.3-4V18.2h8.1v-4.7h-8.1V4.1ZM169.8 14.3c-1.6-.9-3.4-1.4-5.3-1.4-1.7 0-3.4.4-4.9 1.1-1.6.8-3 2-3.9 3.6V.8h-5.5v40.7h5.4l.1-15.3c0-1.5.4-3 1.1-4.3.7-1.2 1.6-2.2 2.8-2.9 1-.6 2.2-1 3.4-1 1.8 0 3.5.7 4.6 2 1.4 1.6 2 3.8 1.9 5.9v15.7h5.5V24.9c.1-2.2-.4-4.5-1.4-6.5-.8-1.8-2.2-3.2-3.8-4.1ZM180.5 13.5h5.5v28h-5.5v-28ZM183.299 1c-1 0-1.9.4-2.5 1-.7.7-1.1 1.6-1 2.5 0 .9.4 1.9 1 2.5 1.4 1.4 3.7 1.4 5.1 0 .7-.7 1.1-1.6 1-2.5 0-1-.4-1.9-1-2.5-.7-.7-1.7-1-2.6-1ZM209.8 14.4c-2-1-4.2-1.6-6.4-1.5-2.8-.1-5.4 1.3-7 3.6l-.3-3h-4.8v28h5.5V25.3c-.1-2 .5-3.9 1.7-5.5 2.8-2.6 7.1-2.6 9.9 0 1.2 1.6 1.8 3.5 1.7 5.5v16.2h5.5V24.9c0-2.2-.5-4.3-1.5-6.2-1-1.8-2.5-3.3-4.3-4.3ZM242.5 17.7c-1-1.6-2.5-2.8-4.2-3.6-1.7-.8-3.6-1.3-5.6-1.3-2.4 0-4.7.6-6.7 1.7-2.1 1.2-3.8 2.9-5 5-1.3 2.4-1.9 5-1.9 7.7-.1 2.7.6 5.4 1.9 7.7 1.2 2.1 2.9 3.8 5 5 2.1 1.2 4.4 1.8 6.7 1.7 1.9 0 3.8-.4 5.5-1.2 1.6-.8 3.1-1.9 4.1-3.4v3.3c.2 2.3-.7 4.5-2.3 6.2-1.6 1.4-3.6 2.2-5.7 2.1-1.9.1-3.9-.4-5.5-1.4-1.4-.8-2.5-2.2-2.8-3.8h-5.8c.4 3 2.1 5.8 4.6 7.6 2.9 1.9 6.2 2.8 9.6 2.7 2.2 0 4.5-.5 6.5-1.4 2.1-1 3.8-2.5 5.1-4.4 1.4-2.2 2.1-4.8 2-7.5V13.3h-4.8l-.7 4.4Zm-1.3 14.7c-1.5 2.8-4.5 4.5-7.6 4.5-1.6 0-3.1-.4-4.4-1.1-1.4-.8-2.5-1.9-3.3-3.3-.9-1.5-1.3-3.3-1.3-5.1 0-1.8.4-3.5 1.3-5.1.8-1.4 1.9-2.5 3.3-3.3 1.4-.8 2.9-1.1 4.4-1.1 3.2 0 6.1 1.7 7.6 4.5 1.7 3.1 1.7 6.8 0 10ZM261 10.2c0-3.3 1.7-4.9 5-4.9.6 0 1.1 0 1.7.1V.8c-1-.3-2.1-.4-3.2-.4-2.4-.1-4.8.8-6.5 2.6a9.318 9.318 0 0 0-2.5 7.1v3.4h-5.4v4.7h5.4v23.4h5.5V18.2h7.8v-4.7H261v-3.3ZM292.6 17.8c-1-1.6-2.5-2.8-4.2-3.6-1.7-.9-3.7-1.3-5.6-1.3-2.4 0-4.7.6-6.7 1.7-2.1 1.2-3.8 2.9-5 5.1-1.3 2.4-1.9 5.1-1.9 7.8-.1 2.7.6 5.4 1.9 7.8 1.2 2.1 2.9 3.9 5 5.1 2.1 1.2 4.4 1.8 6.7 1.7 1.9 0 3.9-.4 5.6-1.3 1.7-.8 3.1-2.1 4.2-3.6l.5 4.3h4.8v-28h-4.8l-.5 4.3Zm-1.2 14.8c-1.5 2.8-4.5 4.5-7.6 4.5-1.6 0-3.1-.4-4.4-1.1-1.4-.8-2.5-1.9-3.3-3.3-1.7-3.2-1.7-7 0-10.2.8-1.4 1.9-2.5 3.3-3.3 1.4-.8 2.9-1.2 4.4-1.1 3.2 0 6.1 1.7 7.6 4.5 1.6 3 1.6 6.8 0 10ZM350 13.5h5.5v28H350v-28ZM352.799 1c-1 0-1.9.4-2.5 1-.7.7-1.1 1.6-1 2.5 0 .9.4 1.9 1 2.5 1.4 1.4 3.7 1.4 5.1 0 .7-.7 1.1-1.6 1-2.5 0-1-.4-1.9-1-2.5-.8-.7-1.7-1-2.6-1ZM361.5.8h5.5v40.7h-5.5V.8ZM373 13.5h5.5v28H373v-28ZM405.699 17.8c-1-1.6-2.5-2.8-4.2-3.6-1.7-.9-3.7-1.3-5.6-1.3-2.4 0-4.7.6-6.7 1.7-2.1 1.2-3.8 2.9-5 5.1-1.3 2.4-2 5.1-1.9 7.8-.1 2.7.6 5.4 1.9 7.8 1.2 2.1 2.9 3.9 5 5.1 2.1 1.2 4.4 1.8 6.7 1.7 1.9 0 3.9-.4 5.6-1.3 1.7-.8 3.1-2.1 4.2-3.6l.5 4.3h4.8v-28h-4.8l-.5 4.3Zm-1.3 14.8c-1.5 2.8-4.5 4.5-7.6 4.5-1.6 0-3.1-.4-4.4-1.1-1.4-.8-2.5-1.9-3.3-3.3-1.7-3.2-1.7-7 0-10.2.8-1.4 1.9-2.5 3.3-3.3 1.4-.8 2.9-1.2 4.4-1.1 3.2 0 6.1 1.7 7.6 4.5 1.7 3 1.7 6.8 0 10ZM430.1 13.3c-1-.4-2-.6-3.1-.4-2.3.3-4.2 1.6-5.2 3.7l-.3-3.1h-4.8v28h5.5V25.1c-.2-1.9.4-3.8 1.5-5.3 1.2-1.1 2.7-1.7 4.3-1.6 1.1 0 1.8 0 2.2.1l-.1-5ZM435.7 35.8c-1.4-1.5-3.8-1.5-5.3 0-.7.7-1.1 1.7-1.1 2.7 0 1 .4 1.9 1.1 2.6 1.5 1.4 3.8 1.4 5.3 0 .7-.7 1.1-1.6 1.1-2.6s-.3-2-1.1-2.7ZM339.3 14.4c-1.9-1-4-1.6-6.1-1.5-1.6 0-3.1.3-4.5.9-1.2.5-2.2 1.2-3.1 2.1-.6.6-1.1 1.3-1.4 2h-.1c-.3-.8-.8-1.5-1.4-2-.9-.9-2-1.6-3.1-2.1-1.4-.6-3-1-4.5-.9-2.6-.1-5 1.3-6.3 3.6l-.3-3h-4.8v28h5.5V25.3c-.1-1.9.4-3.8 1.6-5.4 2.5-2.5 6.6-2.6 9.2 0l.1.1c1.1 1.6 1.7 3.5 1.6 5.5v16.1h5.5V25.5c-.1-2 .4-3.9 1.6-5.5 2.5-2.6 6.6-2.6 9.1-.1l.1.1c1.1 1.6 1.7 3.5 1.6 5.4v16.2h5.5V25c0-2.2-.4-4.3-1.4-6.2-1.2-1.9-2.6-3.4-4.4-4.4Z"/>
</svg>